Coordinates
version=1
nRows=13
nColumns=36
inDegrees=yes

Units are S.I. units (second, meters, Newtons, ...)
If the header above contains a line with 'inDegrees', this indicates whether rotational values are in degrees (yes) or radians (no).

endheader
time	pelvis_tilt	pelvis_list	pelvis_rotation	pelvis_tx	pelvis_ty	pelvis_tz	hip_flexion_r	hip_adduction_r	hip_rotation_r	knee_angle_r	knee_angle_r_beta	ankle_angle_r	subtalar_angle_r	mtp_angle_r	hip_flexion_l	hip_adduction_l	hip_rotation_l	knee_angle_l	knee_angle_l_beta	ankle_angle_l	subtalar_angle_l	mtp_angle_l	lumbar_extension	lumbar_bending	lumbar_rotation	arm_flex_r	arm_add_r	arm_rot_r	elbow_flex_r	pro_sup_r	arm_flex_l	arm_add_l	arm_rot_l	elbow_flex_l	pro_sup_l
      1.23333330	    -11.41596491	     -2.09464256	     -1.57899358	      0.76837880	      1.35873889	     -0.34172948	     -3.87783497	      1.43858275	     -0.82681377	     16.87408975	      0.29450842	     20.65896900	     -2.57786581	     -7.49991649	     -0.52507884	      0.49798938	      2.07297522	     27.14405255	      0.47375309	     15.98119355	      0.99785452	     -7.49991649	     -0.28897455	      0.81086354	      3.35417346	     26.79967908	    -45.37778746	     25.07757171	     90.00128968	     84.74312518	      3.65947986	    -42.68722129	     -2.54870305	    118.28427235	     87.06932235
      1.25000000	    -12.50945656	     -2.00830041	     -1.70495124	      0.79077752	      1.37459973	     -0.34364400	     -2.92137132	      1.27845006	     -0.56796662	     19.09539881	      0.33327758	     14.49978207	     -5.24157027	     -7.49992370	      0.39733188	      0.28049763	      1.75765584	     27.93171703	      0.48750043	     12.78950144	      0.88688964	     -7.49992370	      1.63831201	      0.86758629	      2.89177274	     22.09730520	    -45.79207270	     24.06129209	     90.89868082	     82.05618786	     -0.67895939	    -41.97105683	     -2.73524489	    118.11030429	     84.63723671
      1.26666670	    -13.77210097	     -2.03168044	     -2.01107223	      0.81180506	      1.38814401	     -0.34929139	     -0.54552950	      1.05921077	     -0.58011626	     23.16043773	      0.40422589	      9.26608299	     -8.00221690	     -7.49995151	      2.78029760	     -0.28719417	      1.23163265	     30.17240433	      0.52660780	     10.26025614	      0.91911979	     -7.49995151	      3.14500730	      1.06540186	      1.77011842	     14.18230583	    -45.48401091	     19.35500575	     93.59950053	     78.34460736	     -9.24488220	    -39.51558304	     -6.95673965	    119.65315391	     85.06822782
      1.28333330	    -14.63143998	     -1.88123117	     -2.23678649	      0.83416451	      1.39137882	     -0.35083857	      2.13438851	      0.71088888	     -0.39127547	     27.72152036	      0.48383180	      6.08984041	    -11.25006781	     -7.49995853	      5.32730436	     -0.80473278	      0.76396484	     32.78473030	      0.57220149	      8.58805127	      0.67928504	     -7.49995853	      4.22572929	      1.16906757	      0.55849236	      8.98628538	    -45.82078667	     17.48775781	     95.09523830	     76.75416608	    -14.35949473	    -39.06214618	     -9.08378668	    119.42215630	     83.90832039
      1.30000000	    -15.35966043	     -2.01195097	     -1.79460286	      0.84750850	      1.39797835	     -0.34872192	      5.81738427	      0.62104937	     -0.60257234	     32.43110844	      0.56602962	      5.70870213	    -13.88754257	     -7.49997661	      8.02560109	     -1.83231183	      0.08565152	     35.12473533	      0.61304228	      7.97475663	      0.83111258	     -7.49997661	      4.73719558	      1.25838753	      0.16912436	      3.02913999	    -46.10366399	     14.12280507	     95.34056510	     73.43549860	    -16.20742555	    -39.31810096	     -8.19703174	    116.98186658	     85.75771539
      1.31666670	    -15.51066901	     -2.11598454	     -1.42155386	      0.86246630	      1.40331754	     -0.34832742	      9.49948203	      0.42383092	     -1.07602570	     36.82806951	      0.64277107	      8.01831351	    -15.28003642	     -7.49997986	     10.73069180	     -3.11473052	     -0.65140694	     37.41281517	      0.65297681	      7.83440414	      1.30857938	     -7.49997986	      4.41601668	      1.25701581	     -0.82872740	     -1.13103345	    -46.11731434	     12.23680395	     93.90570089	     72.47191539	    -20.24309030	    -38.37396475	     -9.39159977	    114.05043468	     84.72756666
      1.33333330	    -14.95572931	     -2.47236844	     -1.22183672	      0.87961603	      1.41384766	     -0.34373580	     12.76946026	      0.69857638	     -1.60461205	     39.54362525	      0.69016646	     10.63760680	    -15.59345736	     -7.49998182	     11.68573529	     -4.79370314	     -1.58825049	     36.87980094	      0.64367395	      7.74673676	      2.17193051	     -7.49998182	      3.80113198	      1.45647380	     -1.01025209	     -3.40930219	    -44.84683447	     11.71431232	     88.99378649	     71.79773580	    -22.53767205	    -37.12452514	     -9.34398322	    108.95405876	     84.16716265
      1.35000000	    -13.88773352	     -2.55546555	     -1.73113010	      0.90831582	      1.40645432	     -0.34734524	     14.29561425	      0.42129210	     -2.05281371	     39.83190586	      0.69519790	     11.04275880	    -15.09211790	     -7.49998269	     10.87127913	     -5.92419011	     -3.12244409	     34.49998803	      0.60213838	      8.03483631	      2.66347144	     -7.49998269	      3.02838989	      1.49359542	     -1.25651016	     -6.34898349	    -45.23775265	     11.91516605	     85.61455946	     71.38440130	    -25.35290846	    -36.47068847	     -9.69941662	    105.38023144	     83.79184228
      1.36666670	    -13.21766329	     -2.43744773	     -2.13510205	      0.93031893	      1.40408996	     -0.35745076	     14.83732980	     -0.50445272	     -2.65569526	     38.50825641	      0.67209586	     11.39741154	    -13.43649073	     -7.49998337	     10.98423177	     -6.41718308	     -4.16135286	     31.76613784	      0.55442370	      9.58092967	      3.87408175	     -7.49998337	      2.12034042	      1.71805602	     -1.36931890	     -8.85131596	    -45.68413174	     11.67923327	     81.23201871	     70.90784446	    -27.38636803	    -34.82719310	    -10.12449900	    100.64123384	     83.38199050
      1.38333330	    -12.62941310	     -2.16936709	     -1.75114183	      0.94006710	      1.39624854	     -0.35806398	     15.40332707	     -1.66335260	     -3.81126457	     36.18038911	      0.63146691	     12.50777716	    -10.94127299	     -7.49998407	     12.03128251	     -6.81879192	     -5.14813277	     29.45590251	      0.51410248	     10.39663624	      4.46429102	     -7.49998407	      0.72707954	      1.63844346	     -1.70153412	    -10.60590139	    -46.13761629	     11.44650856	     76.12515542	     70.21784145	    -28.67830403	    -34.01175217	     -9.83506039	     94.37342282	     83.07909253
      1.40000000	    -12.52487305	     -2.33912080	     -1.84006597	      0.94280328	      1.38777173	     -0.35951277	     17.34461162	     -1.93554712	     -4.93273057	     34.23732607	      0.59755407	     12.42741037	     -9.12091088	     -7.49998455	     13.55128690	     -7.71708617	     -5.98991325	     27.04547157	      0.47203253	      9.97821480	      4.66303434	     -7.49998455	     -0.79346721	      1.97771998	     -1.68122182	    -12.54230020	    -47.60001097	     11.28537203	     72.76640730	     69.65502195	    -29.68913979	    -33.58257561	    -10.00803878	     89.96404008	     82.86724654
      1.41666670	    -12.38060604	     -2.14270501	     -1.67889712	      0.95210522	      1.36949544	     -0.36002135	     19.40322226	     -2.59725931	     -5.63396623	     33.09937827	      0.57769313	     11.86152237	     -7.96533200	     -7.49998562	     16.15992866	     -8.36142277	     -6.57498364	     25.97217455	      0.45329996	      9.74855535	      3.66525516	     -7.49998562	     -2.60997282	      1.55796335	     -1.79763044	    -16.41645361	    -49.13649010	      9.68387931	     70.26461492	     68.39994260	    -32.55325536	    -33.68350106	    -11.23648822	     86.50824901	     82.50107995
      1.43333330	    -12.26244181	     -1.75360144	     -1.27099966	      0.96709538	      1.36175579	     -0.35573580	     20.35177487	     -2.84043993	     -5.33454716	     29.81504078	      0.52037063	     12.19915710	     -5.19449956	     -7.49998894	     17.83863989	     -8.61307163	     -6.96635633	     24.37952197	      0.42550293	      9.92491771	      2.89523399	     -7.49998894	     -4.33518347	      0.64698047	     -0.08667922	    -24.43985836	    -48.48553486	      3.67060265	     68.93155401	     65.79560528	    -34.14835196	    -34.57466265	    -11.21130685	     81.64156812	     83.09292531
